<?xml version="1.0" encoding="UTF-8" standalone="no"?>
<!-- Created with Inkscape (http://www.inkscape.org/) -->
<svg id="svg2" xmlns:rdf="http://www.w3.org/1999/02/22-rdf-syntax-ns#" xmlns="http://www.w3.org/2000/svg" height="297mm" width="210mm" version="1.1" xmlns:cc="http://creativecommons.org/ns#" xmlns:dc="http://purl.org/dc/elements/1.1/">
 <metadata id="metadata89">
  <rdf:RDF>
   <cc:Work rdf:about="">
    <dc:format>image/svg+xml</dc:format>
    <dc:type rdf:resource="http://purl.org/dc/dcmitype/StillImage"/>
    <dc:title/>
   </cc:Work>
  </rdf:RDF>
 </metadata>
 <g id="layer1">
  <g id="g3008" transform="translate(53.1496062992,207.283464567)">
   <rect id="rect2818" height="20mm" width="20mm" y="0mm" x="0mm" fill="#000"/>
   <rect id="rect2820" height="20mm" width="20mm" y="0mm" x="20mm" fill="#FFF"/>
   <rect id="rect2834" height="20mm" width="20mm" y="0mm" x="40mm" fill="#000"/>
   <rect id="rect2836" height="20mm" width="20mm" y="0mm" x="60mm" fill="#FFF"/>
   <rect id="rect2844" height="20mm" width="20mm" y="0mm" x="80mm" fill="#000"/>
   <rect id="rect2846" height="20mm" width="20mm" y="0mm" x="100mm" fill="#FFF"/>
   <rect id="rect2854" height="20mm" width="20mm" y="0mm" x="120mm" fill="#000"/>
   <rect id="rect2856" height="20mm" width="20mm" y="0mm" x="140mm" fill="#FFF"/>
   <rect id="rect2878" height="20mm" width="20mm" y="0mm" x="160mm" fill="#000"/>
   <rect id="rect2824" height="20mm" width="20mm" y="20mm" x="0mm" fill="#FFF"/>
   <rect id="rect2822" height="20mm" width="20mm" y="20mm" x="20mm" fill="#000"/>
   <rect id="rect2840" height="20mm" width="20mm" y="20mm" x="40mm" fill="#FFF"/>
   <rect id="rect2838" height="20mm" width="20mm" y="20mm" x="60mm" fill="#000"/>
   <rect id="rect2850" height="20mm" width="20mm" y="20mm" x="80mm" fill="#FFF"/>
   <rect id="rect2848" height="20mm" width="20mm" y="20mm" x="100mm" fill="#000"/>
   <rect id="rect2860" height="20mm" width="20mm" y="20mm" x="120mm" fill="#FFF"/>
   <rect id="rect2858" height="20mm" width="20mm" y="20mm" x="140mm" fill="#000"/>
   <rect id="rect2880" height="20mm" width="20mm" y="20mm" x="160mm" fill="#FFF"/>
   <rect id="rect2882" height="20mm" width="20mm" y="40mm" x="0mm" fill="#000"/>
   <rect id="rect2884" height="20mm" width="20mm" y="40mm" x="20mm" fill="#FFF"/>
   <rect id="rect2890" height="20mm" width="20mm" y="40mm" x="40mm" fill="#000"/>
   <rect id="rect2892" height="20mm" width="20mm" y="40mm" x="60mm" fill="#FFF"/>
   <rect id="rect2898" height="20mm" width="20mm" y="40mm" x="80mm" fill="#000"/>
   <rect id="rect2900" height="20mm" width="20mm" y="40mm" x="100mm" fill="#FFF"/>
   <rect id="rect2906" height="20mm" width="20mm" y="40mm" x="120mm" fill="#000"/>
   <rect id="rect2908" height="20mm" width="20mm" y="40mm" x="140mm" fill="#FFF"/>
   <rect id="rect2914" height="20mm" width="20mm" y="40mm" x="160mm" fill="#000"/>
   <rect id="rect2888" height="20mm" width="20mm" y="60mm" x="0mm" fill="#FFF"/>
   <rect id="rect2886" height="20mm" width="20mm" y="60mm" x="20mm" fill="#000"/>
   <rect id="rect2896" height="20mm" width="20mm" y="60mm" x="40mm" fill="#FFF"/>
   <rect id="rect2894" height="20mm" width="20mm" y="60mm" x="60mm" fill="#000"/>
   <rect id="rect2904" height="20mm" width="20mm" y="60mm" x="80mm" fill="#FFF"/>
   <rect id="rect2902" height="20mm" width="20mm" y="60mm" x="100mm" fill="#000"/>
   <rect id="rect2912" height="20mm" width="20mm" y="60mm" x="120mm" fill="#FFF"/>
   <rect id="rect2910" height="20mm" width="20mm" y="60mm" x="140mm" fill="#000"/>
   <rect id="rect2916" height="20mm" width="20mm" y="60mm" x="160mm" fill="#FFF"/>
   <rect id="rect2918" height="20mm" width="20mm" y="80mm" x="0mm" fill="#000"/>
   <rect id="rect2920" height="20mm" width="20mm" y="80mm" x="20mm" fill="#FFF"/>
   <rect id="rect2926" height="20mm" width="20mm" y="80mm" x="40mm" fill="#000"/>
   <rect id="rect2928" height="20mm" width="20mm" y="80mm" x="60mm" fill="#FFF"/>
   <rect id="rect2934" height="20mm" width="20mm" y="80mm" x="80mm" fill="#000"/>
   <rect id="rect2936" height="20mm" width="20mm" y="80mm" x="100mm" fill="#FFF"/>
   <rect id="rect2942" height="20mm" width="20mm" y="80mm" x="120mm" fill="#000"/>
   <rect id="rect2944" height="20mm" width="20mm" y="80mm" x="140mm" fill="#FFF"/>
   <rect id="rect2950" height="20mm" width="20mm" y="80mm" x="160mm" fill="#000"/>
   <rect id="rect2924" height="20mm" width="20mm" y="100mm" x="0mm" fill="#FFF"/>
   <rect id="rect2922" height="20mm" width="20mm" y="100mm" x="20mm" fill="#000"/>
   <rect id="rect2932" height="20mm" width="20mm" y="100mm" x="40mm" fill="#FFF"/>
   <rect id="rect2930" height="20mm" width="20mm" y="100mm" x="60mm" fill="#000"/>
   <rect id="rect2940" height="20mm" width="20mm" y="100mm" x="80mm" fill="#FFF"/>
   <rect id="rect2938" height="20mm" width="20mm" y="100mm" x="100mm" fill="#000"/>
   <rect id="rect2948" height="20mm" width="20mm" y="100mm" x="120mm" fill="#FFF"/>
   <rect id="rect2946" height="20mm" width="20mm" y="100mm" x="140mm" fill="#000"/>
   <rect id="rect2952" height="20mm" width="20mm" y="100mm" x="160mm" fill="#FFF"/>
   <rect id="rect2954" height="20mm" width="20mm" y="120mm" x="0mm" fill="#000"/>
   <rect id="rect2956" height="20mm" width="20mm" y="120mm" x="20mm" fill="#FFF"/>
   <rect id="rect2962" height="20mm" width="20mm" y="120mm" x="40mm" fill="#000"/>
   <rect id="rect2964" height="20mm" width="20mm" y="120mm" x="60mm" fill="#FFF"/>
   <rect id="rect2970" height="20mm" width="20mm" y="120mm" x="80mm" fill="#000"/>
   <rect id="rect2972" height="20mm" width="20mm" y="120mm" x="100mm" fill="#FFF"/>
   <rect id="rect2978" height="20mm" width="20mm" y="120mm" x="120mm" fill="#000"/>
   <rect id="rect2980" height="20mm" width="20mm" y="120mm" x="140mm" fill="#FFF"/>
   <rect id="rect2986" height="20mm" width="20mm" y="120mm" x="160mm" fill="#000"/>
   <rect id="rect2960" height="20mm" width="20mm" y="140mm" x="0mm" fill="#FFF"/>
   <rect id="rect2958" height="20mm" width="20mm" y="140mm" x="20mm" fill="#000"/>
   <rect id="rect2968" height="20mm" width="20mm" y="140mm" x="40mm" fill="#FFF"/>
   <rect id="rect2966" height="20mm" width="20mm" y="140mm" x="60mm" fill="#000"/>
   <rect id="rect2976" height="20mm" width="20mm" y="140mm" x="80mm" fill="#FFF"/>
   <rect id="rect2974" height="20mm" width="20mm" y="140mm" x="100mm" fill="#000"/>
   <rect id="rect2984" height="20mm" width="20mm" y="140mm" x="120mm" fill="#FFF"/>
   <rect id="rect2982" height="20mm" width="20mm" y="140mm" x="140mm" fill="#000"/>
   <rect id="rect2988" height="20mm" width="20mm" y="140mm" x="160mm" fill="#FFF"/>
   <rect id="rect2990" height="20mm" width="20mm" y="160mm" x="0mm" fill="#000"/>
   <rect id="rect2992" height="20mm" width="20mm" y="160mm" x="20mm" fill="#FFF"/>
   <rect id="rect2994" height="20mm" width="20mm" y="160mm" x="40mm" fill="#000"/>
   <rect id="rect2996" height="20mm" width="20mm" y="160mm" x="60mm" fill="#FFF"/>
   <rect id="rect2998" height="20mm" width="20mm" y="160mm" x="80mm" fill="#000"/>
   <rect id="rect3000" height="20mm" width="20mm" y="160mm" x="100mm" fill="#FFF"/>
   <rect id="rect3002" height="20mm" width="20mm" y="160mm" x="120mm" fill="#000"/>
   <rect id="rect3004" height="20mm" width="20mm" y="160mm" x="140mm" fill="#FFF"/>
   <rect id="rect3006" height="20mm" width="20mm" y="160mm" x="160mm" fill="#000"/>
  </g>
 </g>
</svg>
